<svg xmlns="http://www.w3.org/2000/svg" width="256" height="256" viewBox="0 0 100 100"><rect width="100" height="100" rx="20" fill="#331adf"></rect><path d="M52.66 77.72L52.66 77.72Q46.35 77.72 42.44 74.93Q38.52 72.14 38.52 65.66L38.52 65.66L38.52 22.91Q38.98 22.73 39.92 22.51Q40.86 22.28 41.95 22.28L41.95 22.28Q45.72 22.28 45.72 25.52L45.72 25.52L45.72 35.87L60.48 35.87Q60.75 36.32 61.02 37.09Q61.30 37.85 61.30 38.75L61.30 38.75Q61.30 41.81 58.59 41.81L58.59 41.81L45.72 41.81L45.72 65.21Q45.72 68.81 47.75 70.30Q49.77 71.78 53.46 71.78L53.46 71.78Q54.99 71.78 56.88 71.24Q58.77 70.70 60.03 69.98L60.03 69.98Q60.58 70.52 61.02 71.33Q61.47 72.14 61.47 73.22L61.47 73.22Q61.47 75.20 59.13 76.46Q56.80 77.72 52.66 77.72Z" fill="#fff"></path></svg>